<svg xmlns="http://www.w3.org/2000/svg" xmlns:xlink="http://www.w3.org/1999/xlink" width="500" zoomAndPan="magnify" viewBox="0 0 375 374.999991" height="500" preserveAspectRatio="xMidYMid meet" version="1.0"><defs><g/></defs><g fill="#ffde59" fill-opacity="1"><g transform="translate(52.599611, 259.124983)"><g><path d="M 42.40625 2.40625 C 32.9375 2.40625 24.234375 0.640625 16.296875 -2.890625 C 8.367188 -6.429688 1.867188 -11.46875 -3.203125 -18 L 14.796875 -39.59375 C 22.398438 -29.332031 31.066406 -24.203125 40.796875 -24.203125 C 53.992188 -24.203125 60.59375 -31.9375 60.59375 -47.40625 L 60.59375 -114 L 11.40625 -114 L 11.40625 -140 L 92.796875 -140 L 92.796875 -49.203125 C 92.796875 -32.003906 88.53125 -19.101562 80 -10.5 C 71.46875 -1.894531 58.9375 2.40625 42.40625 2.40625 Z M 42.40625 2.40625 "/></g></g></g><g fill="#ffde59" fill-opacity="1"><g transform="translate(160.79674, 259.124983)"><g><path d="M 145 -140 L 145 0 L 118.40625 0 L 48.59375 -85 L 48.59375 0 L 16.59375 0 L 16.59375 -140 L 43.40625 -140 L 113 -55 L 113 -140 Z M 145 -140 "/></g></g></g></svg>